<?xml version="1.0" encoding="UTF-8" standalone="no"?>
<svg
   xmlns:dc="http://purl.org/dc/elements/1.1/"
   xmlns:cc="http://creativecommons.org/ns#"
   xmlns:rdf="http://www.w3.org/1999/02/22-rdf-syntax-ns#"
   xmlns:svg="http://www.w3.org/2000/svg"
   xmlns="http://www.w3.org/2000/svg"
   xmlns:sodipodi="http://sodipodi.sourceforge.net/DTD/sodipodi-0.dtd"
   xmlns:inkscape="http://www.inkscape.org/namespaces/inkscape"
   version="1.1"
   id="Capa_1"
   x="0px"
   y="0px"
   viewBox="0 0 480 480"
   style="enable-background:new 0 0 480 480;"
   xml:space="preserve"
   sodipodi:docname="document.svg"
   inkscape:version="1.0.2 (e86c8708, 2021-01-15)"><metadata
   id="metadata940"><rdf:RDF><cc:Work
       rdf:about=""><dc:format>image/svg+xml</dc:format><dc:type
         rdf:resource="http://purl.org/dc/dcmitype/StillImage" /></cc:Work></rdf:RDF></metadata><defs
   id="defs938" /><sodipodi:namedview
   pagecolor="#ffffff"
   bordercolor="#666666"
   borderopacity="1"
   objecttolerance="10"
   gridtolerance="10"
   guidetolerance="10"
   inkscape:pageopacity="0"
   inkscape:pageshadow="2"
   inkscape:window-width="1920"
   inkscape:window-height="972"
   id="namedview936"
   showgrid="false"
   inkscape:zoom="1.4833333"
   inkscape:cx="240"
   inkscape:cy="240"
   inkscape:window-x="0"
   inkscape:window-y="25"
   inkscape:window-maximized="1"
   inkscape:current-layer="Capa_1" />
<g
   id="g837"
   style="fill:#7b7b7b;fill-opacity:1">
	<g
   id="g835"
   style="fill:#7b7b7b;fill-opacity:1">
		<path
   d="M160,344h-16c-4.418,0-8,3.582-8,8s3.582,8,8,8h16c4.418,0,8-3.582,8-8S164.418,344,160,344z"
   id="path833"
   style="fill:#7b7b7b;fill-opacity:1" />
	</g>
</g>
<g
   id="g843"
   style="fill:#7b7b7b;fill-opacity:1">
	<g
   id="g841"
   style="fill:#7b7b7b;fill-opacity:1">
		<path
   d="M384,344H192c-4.418,0-8,3.582-8,8s3.582,8,8,8h192c4.418,0,8-3.582,8-8S388.418,344,384,344z"
   id="path839"
   style="fill:#7b7b7b;fill-opacity:1" />
	</g>
</g>
<g
   id="g849"
   style="fill:#7b7b7b;fill-opacity:1">
	<g
   id="g847"
   style="fill:#7b7b7b;fill-opacity:1">
		<path
   d="M160,296h-16c-4.418,0-8,3.582-8,8s3.582,8,8,8h16c4.418,0,8-3.582,8-8S164.418,296,160,296z"
   id="path845"
   style="fill:#7b7b7b;fill-opacity:1" />
	</g>
</g>
<g
   id="g855"
   style="fill:#7b7b7b;fill-opacity:1">
	<g
   id="g853"
   style="fill:#7b7b7b;fill-opacity:1">
		<path
   d="M384,296H192c-4.418,0-8,3.582-8,8s3.582,8,8,8h192c4.418,0,8-3.582,8-8S388.418,296,384,296z"
   id="path851"
   style="fill:#7b7b7b;fill-opacity:1" />
	</g>
</g>
<g
   id="g861"
   style="fill:#7b7b7b;fill-opacity:1">
	<g
   id="g859"
   style="fill:#7b7b7b;fill-opacity:1">
		<path
   d="M160,248h-16c-4.418,0-8,3.582-8,8s3.582,8,8,8h16c4.418,0,8-3.582,8-8S164.418,248,160,248z"
   id="path857"
   style="fill:#7b7b7b;fill-opacity:1" />
	</g>
</g>
<g
   id="g867"
   style="fill:#7b7b7b;fill-opacity:1">
	<g
   id="g865"
   style="fill:#7b7b7b;fill-opacity:1">
		<path
   d="M384,248H192c-4.418,0-8,3.582-8,8s3.582,8,8,8h192c4.418,0,8-3.582,8-8S388.418,248,384,248z"
   id="path863"
   style="fill:#7b7b7b;fill-opacity:1" />
	</g>
</g>
<g
   id="g873"
   style="fill:#7b7b7b;fill-opacity:1">
	<g
   id="g871"
   style="fill:#7b7b7b;fill-opacity:1">
		<path
   d="M160,200h-16c-4.418,0-8,3.582-8,8s3.582,8,8,8h16c4.418,0,8-3.582,8-8S164.418,200,160,200z"
   id="path869"
   style="fill:#7b7b7b;fill-opacity:1" />
	</g>
</g>
<g
   id="g879"
   style="fill:#7b7b7b;fill-opacity:1">
	<g
   id="g877"
   style="fill:#7b7b7b;fill-opacity:1">
		<path
   d="M384,200H192c-4.418,0-8,3.582-8,8s3.582,8,8,8h192c4.418,0,8-3.582,8-8S388.418,200,384,200z"
   id="path875"
   style="fill:#7b7b7b;fill-opacity:1" />
	</g>
</g>
<g
   id="g885"
   style="fill:#7b7b7b;fill-opacity:1">
	<g
   id="g883"
   style="fill:#7b7b7b;fill-opacity:1">
		<path
   d="M160,152h-16c-4.418,0-8,3.582-8,8s3.582,8,8,8h16c4.418,0,8-3.582,8-8S164.418,152,160,152z"
   id="path881"
   style="fill:#7b7b7b;fill-opacity:1" />
	</g>
</g>
<g
   id="g891"
   style="fill:#7b7b7b;fill-opacity:1">
	<g
   id="g889"
   style="fill:#7b7b7b;fill-opacity:1">
		<path
   d="M384,152H192c-4.418,0-8,3.582-8,8s3.582,8,8,8h192c4.418,0,8-3.582,8-8S388.418,152,384,152z"
   id="path887"
   style="fill:#7b7b7b;fill-opacity:1" />
	</g>
</g>
<g
   id="g897">
	<g
   id="g895"
   style="fill:#7b7b7b;fill-opacity:1">
		<path
   d="M439.896,119.496c-0.04-0.701-0.177-1.393-0.408-2.056c-0.088-0.256-0.152-0.504-0.264-0.752    c-0.389-0.87-0.931-1.664-1.6-2.344l-112-112c-0.68-0.669-1.474-1.211-2.344-1.6c-0.248-0.112-0.496-0.176-0.744-0.264    c-0.669-0.23-1.366-0.37-2.072-0.416C320.328,0.088,320.176,0,320,0H96c-4.418,0-8,3.582-8,8v24H48c-4.418,0-8,3.582-8,8v432    c0,4.418,3.582,8,8,8h336c4.418,0,8-3.582,8-8v-40h40c4.418,0,8-3.582,8-8V120C440,119.824,439.912,119.672,439.896,119.496z     M328,27.312L412.688,112H328V27.312z M376,464H56V48h32v376c0,4.418,3.582,8,8,8h280V464z M424,416H104V16h208v104    c0,4.418,3.582,8,8,8h104V416z"
   id="path893"
   style="fill:#7b7b7b;fill-opacity:1" />
	</g>
</g>
<g
   id="g903"
   style="fill:#7b7b7b;fill-opacity:1">
	<g
   id="g901"
   style="fill:#7b7b7b;fill-opacity:1">
		<path
   d="M192,72h-48c-4.418,0-8,3.582-8,8v48c0,4.418,3.582,8,8,8h48c4.418,0,8-3.582,8-8V80C200,75.582,196.418,72,192,72z     M184,120h-32V88h32V120z"
   id="path899"
   style="fill:#7b7b7b;fill-opacity:1" />
	</g>
</g>
<g
   id="g905">
</g>
<g
   id="g907">
</g>
<g
   id="g909">
</g>
<g
   id="g911">
</g>
<g
   id="g913">
</g>
<g
   id="g915">
</g>
<g
   id="g917">
</g>
<g
   id="g919">
</g>
<g
   id="g921">
</g>
<g
   id="g923">
</g>
<g
   id="g925">
</g>
<g
   id="g927">
</g>
<g
   id="g929">
</g>
<g
   id="g931">
</g>
<g
   id="g933">
</g>
</svg>
